<svg width="1024" height="768" xmlns="http://www.w3.org/2000/svg">
        <rect width="100%" height="100%" fill="#0A0E21"/>
        <g fill="#FFFFFF">
            <circle cx="685" cy="704" r="0.1212924121665041" opacity="0.29138563998693456"/><circle cx="792" cy="158" r="1.3146940600469579" opacity="0.2720735324555678"/><circle cx="306" cy="269" r="0.8165151389791373" opacity="0.9813823851638521"/><circle cx="46" cy="285" r="1.0459095060377033" opacity="0.47426059025444334"/><circle cx="198" cy="44" r="1.4125175725042705" opacity="0.4534824068978866"/><circle cx="633" cy="251" r="0.6076062915093449" opacity="0.5339218492735582"/><circle cx="297" cy="232" r="1.4231736584047598" opacity="0.8449558679386673"/><circle cx="410" cy="99" r="0.998476254093336" opacity="0.6238433884649078"/><circle cx="205" cy="131" r="0.3491354830943556" opacity="0.6917224457076625"/><circle cx="855" cy="555" r="1.4215757164383667" opacity="0.3401022342438973"/><circle cx="99" cy="300" r="0.16415358393833934" opacity="0.8865217817984625"/><circle cx="739" cy="530" r="1.407872015890759" opacity="0.615992715048774"/><circle cx="724" cy="385" r="1.46289678815524" opacity="0.2643308092936703"/><circle cx="76" cy="425" r="0.4939421637841287" opacity="0.9581846397844407"/><circle cx="955" cy="752" r="0.4960617277923156" opacity="0.7650686362776937"/><circle cx="239" cy="541" r="0.39037152610592774" opacity="0.8550606875123248"/><circle cx="469" cy="679" r="0.01854346614857072" opacity="0.9016411788639072"/><circle cx="258" cy="155" r="0.9775247876239523" opacity="0.9189333391935914"/><circle cx="1021" cy="678" r="0.04063763167003165" opacity="0.8852135895063828"/><circle cx="230" cy="322" r="0.5319324788599249" opacity="0.6647215504281718"/><circle cx="614" cy="342" r="1.412406045842769" opacity="0.7259024781996983"/><circle cx="916" cy="451" r="1.338575826917129" opacity="0.8364325260192951"/><circle cx="147" cy="269" r="0.5493030180594721" opacity="0.6904713245556208"/><circle cx="301" cy="542" r="1.3961244945974378" opacity="0.565830343785227"/><circle cx="864" cy="507" r="0.9491146471390947" opacity="0.9532782530926178"/><circle cx="984" cy="290" r="0.9440006408415211" opacity="0.35486688036015474"/><circle cx="648" cy="660" r="0.7483955037834894" opacity="0.6825219370331026"/><circle cx="255" cy="135" r="0.27355585735628185" opacity="0.8579983536975027"/><circle cx="28" cy="757" r="0.004988190342548493" opacity="0.577267410210496"/><circle cx="364" cy="593" r="1.0731534654967003" opacity="0.2648116492848203"/><circle cx="322" cy="608" r="0.12824134151459687" opacity="0.4301378812349215"/><circle cx="312" cy="498" r="0.6117787066007624" opacity="0.6042828854310522"/><circle cx="925" cy="291" r="0.4132537996698902" opacity="0.5987202018538504"/><circle cx="983" cy="265" r="0.8932693380654075" opacity="0.6957373971290353"/><circle cx="1018" cy="389" r="0.44637826681807236" opacity="0.38742828011834585"/><circle cx="800" cy="477" r="1.3408256831202645" opacity="0.6220604883670587"/><circle cx="1019" cy="298" r="0.907133107503993" opacity="0.9039809319723247"/><circle cx="503" cy="67" r="1.379773647275405" opacity="0.9612505967027614"/><circle cx="302" cy="339" r="0.6093471702170499" opacity="0.7316520440576324"/><circle cx="603" cy="245" r="0.47012911874533614" opacity="0.5468582568418352"/><circle cx="682" cy="609" r="0.15451320722292428" opacity="0.7951404985334449"/><circle cx="828" cy="83" r="0.7766901816394112" opacity="0.9414781995537573"/><circle cx="785" cy="45" r="1.225723940744322" opacity="0.8639172592599111"/><circle cx="1006" cy="229" r="0.477791529852038" opacity="0.4950551284805066"/><circle cx="362" cy="237" r="0.8050460122982818" opacity="0.9344947030552186"/><circle cx="782" cy="594" r="0.5293227507226225" opacity="0.4661493097685869"/><circle cx="704" cy="427" r="0.06432638262963952" opacity="0.7530456738133273"/><circle cx="562" cy="534" r="1.335276758261234" opacity="0.423063763478935"/><circle cx="157" cy="644" r="0.5115193698371452" opacity="0.9385562352654817"/><circle cx="708" cy="674" r="1.0072481591914442" opacity="0.9993839938080005"/><circle cx="468" cy="763" r="1.4109725621849345" opacity="0.6662116629913168"/><circle cx="578" cy="602" r="0.5569421103787889" opacity="0.6147628856803764"/><circle cx="313" cy="575" r="0.11152319052361614" opacity="0.9938927959265127"/><circle cx="504" cy="133" r="1.1958694372222116" opacity="0.46965462795431584"/><circle cx="661" cy="217" r="1.1547351760005904" opacity="0.6942088198862593"/><circle cx="723" cy="359" r="0.1430219750563858" opacity="0.42482148712036116"/><circle cx="814" cy="645" r="0.5020142707853744" opacity="0.2571826520820329"/><circle cx="486" cy="67" r="1.0791163158138706" opacity="0.382629926811984"/><circle cx="739" cy="725" r="0.7615736934306592" opacity="0.20223917384701995"/><circle cx="507" cy="424" r="0.01861451986087659" opacity="0.691099078755798"/><circle cx="663" cy="448" r="0.990316557668309" opacity="0.2076932187842683"/><circle cx="919" cy="126" r="1.1083126273743256" opacity="0.6050277794029908"/><circle cx="885" cy="521" r="0.8482178227939435" opacity="0.4384619181477343"/><circle cx="665" cy="481" r="0.4890497329551682" opacity="0.8083058540847203"/><circle cx="381" cy="495" r="0.005272682947921714" opacity="0.8903346513788388"/><circle cx="109" cy="481" r="0.21350537964928784" opacity="0.5244469535527758"/><circle cx="63" cy="581" r="1.4104373297822266" opacity="0.24136774395870975"/><circle cx="782" cy="392" r="0.25666405252765423" opacity="0.44696682916405184"/><circle cx="696" cy="134" r="1.416192850475578" opacity="0.3019574156931537"/><circle cx="801" cy="53" r="0.9225395802449039" opacity="0.3385946872925294"/><circle cx="979" cy="319" r="0.4497157615206654" opacity="0.5212661030431001"/><circle cx="566" cy="662" r="0.19845529335546608" opacity="0.6129449342617408"/><circle cx="879" cy="569" r="0.9210857715793268" opacity="0.6543947881730734"/><circle cx="958" cy="148" r="0.5237166039788901" opacity="0.3526276916841953"/><circle cx="786" cy="695" r="0.5199899346251371" opacity="0.6094508396128222"/><circle cx="1006" cy="289" r="0.6722162803995351" opacity="0.5157947986670619"/><circle cx="198" cy="593" r="0.2329294372514671" opacity="0.4310507460011245"/><circle cx="897" cy="537" r="1.0446764014382102" opacity="0.7515306179386589"/><circle cx="708" cy="238" r="0.07931702433253929" opacity="0.21766693876419901"/><circle cx="926" cy="596" r="0.4701543050912833" opacity="0.5919521255508022"/><circle cx="811" cy="10" r="0.6634298660485172" opacity="0.6317828150043809"/><circle cx="873" cy="32" r="0.4743428530837366" opacity="0.9179803609431121"/><circle cx="340" cy="709" r="1.2258223428278883" opacity="0.24220935734107663"/><circle cx="821" cy="235" r="0.837812134764833" opacity="0.35561379852360314"/><circle cx="381" cy="504" r="1.4765217393888141" opacity="0.6036948034846308"/><circle cx="342" cy="627" r="0.8292791311757329" opacity="0.34931511407686777"/><circle cx="757" cy="383" r="1.3804024745041046" opacity="0.3658045415949051"/><circle cx="536" cy="449" r="0.9974255071420506" opacity="0.7806666873558352"/><circle cx="1012" cy="196" r="0.4162040918587633" opacity="0.7708121956127785"/><circle cx="749" cy="637" r="0.019804613188698528" opacity="0.4669568548038546"/><circle cx="753" cy="722" r="0.9630324678070018" opacity="0.9264163719523981"/><circle cx="604" cy="309" r="1.2283453582123296" opacity="0.20075251713616532"/><circle cx="535" cy="488" r="1.1877685060261087" opacity="0.894630213843248"/><circle cx="96" cy="345" r="0.83150087024797" opacity="0.2195763560608157"/><circle cx="903" cy="658" r="0.43911917928029687" opacity="0.7579692974451318"/><circle cx="168" cy="428" r="1.3407828660481158" opacity="0.9039017241508225"/><circle cx="93" cy="154" r="0.3471710306585384" opacity="0.748376431962529"/><circle cx="319" cy="70" r="1.416596650118961" opacity="0.4787537335092378"/><circle cx="441" cy="639" r="0.16521167533450298" opacity="0.5651753179717354"/><circle cx="757" cy="468" r="0.48601724844134264" opacity="0.32078866065199263"/><circle cx="712" cy="401" r="0.30267745561969905" opacity="0.408852668365938"/><circle cx="223" cy="267" r="1.1604825245151915" opacity="0.25429330404420886"/><circle cx="936" cy="703" r="1.0753420678784664" opacity="0.3565077241886071"/><circle cx="432" cy="403" r="1.3781386623698788" opacity="0.8120908434364331"/><circle cx="659" cy="321" r="0.41951045953080257" opacity="0.779177053841092"/><circle cx="249" cy="697" r="1.495142727579864" opacity="0.830416666760623"/><circle cx="210" cy="4" r="0.4443210648461001" opacity="0.2642745368611083"/><circle cx="232" cy="117" r="0.6673427982090635" opacity="0.7175039243845525"/><circle cx="524" cy="29" r="0.012212372131080285" opacity="0.9634401319755246"/><circle cx="148" cy="503" r="0.9663952855778914" opacity="0.26757937320447367"/><circle cx="681" cy="733" r="1.0374804021515764" opacity="0.5981517054408849"/><circle cx="181" cy="759" r="1.22372710754228" opacity="0.7630559540370692"/><circle cx="959" cy="542" r="0.45040656809691537" opacity="0.9199048155385274"/><circle cx="546" cy="116" r="0.8196721936539403" opacity="0.7548794853164869"/><circle cx="686" cy="289" r="1.224459547945174" opacity="0.7059678142714267"/><circle cx="825" cy="237" r="0.5274227599396691" opacity="0.5717587842552888"/><circle cx="59" cy="355" r="1.2242463217274049" opacity="0.9566790895460655"/><circle cx="416" cy="638" r="0.826513265642541" opacity="0.26524289144624974"/><circle cx="530" cy="344" r="0.04767697939128246" opacity="0.6462261155298545"/><circle cx="937" cy="615" r="0.5508689535961815" opacity="0.21984372934978805"/><circle cx="357" cy="560" r="1.2159675073374634" opacity="0.35941498511517517"/><circle cx="498" cy="487" r="0.7062776059396194" opacity="0.5357800191311558"/><circle cx="275" cy="405" r="0.8871939773755517" opacity="0.5343719939152782"/><circle cx="974" cy="158" r="0.24465392830477517" opacity="0.4787020937839243"/><circle cx="895" cy="244" r="0.12938361093785666" opacity="0.33814129060198167"/><circle cx="931" cy="145" r="0.16547651914993544" opacity="0.4162215625745862"/><circle cx="342" cy="467" r="0.7809330749370804" opacity="0.6427267622284478"/><circle cx="349" cy="305" r="0.6581415404412716" opacity="0.6556462781389552"/><circle cx="622" cy="652" r="0.9023447955474053" opacity="0.21082479954857547"/><circle cx="553" cy="658" r="0.9316951289417102" opacity="0.8437001740062804"/><circle cx="875" cy="15" r="1.2164322250067643" opacity="0.9856150812308626"/><circle cx="915" cy="667" r="0.10833337782957031" opacity="0.8929212636128678"/><circle cx="63" cy="190" r="0.7081802992727457" opacity="0.34071983496655955"/><circle cx="282" cy="81" r="0.576911911211401" opacity="0.4314593506402631"/><circle cx="503" cy="144" r="1.0632879086995968" opacity="0.7347461873046948"/><circle cx="967" cy="208" r="1.2241881594657547" opacity="0.8969415942246346"/><circle cx="714" cy="218" r="0.2919358840706351" opacity="0.7673363494001748"/><circle cx="720" cy="272" r="0.3392840337807935" opacity="0.9413294368174066"/><circle cx="1020" cy="525" r="0.25263020063491703" opacity="0.6168210988214332"/><circle cx="857" cy="97" r="0.5254904660564558" opacity="0.48687831270912896"/><circle cx="40" cy="600" r="1.1973089676877047" opacity="0.4352770146601739"/><circle cx="458" cy="89" r="1.3754050474216697" opacity="0.9015586939191791"/><circle cx="287" cy="766" r="0.1398412022920158" opacity="0.5513970944869278"/><circle cx="889" cy="488" r="1.2987836533103403" opacity="0.652043813429231"/><circle cx="534" cy="253" r="0.8579156869480936" opacity="0.7185236346652111"/><circle cx="633" cy="267" r="0.9566769703880411" opacity="0.239901443780996"/><circle cx="604" cy="460" r="1.4659729519118219" opacity="0.2598639906985259"/><circle cx="825" cy="268" r="1.1379671100316675" opacity="0.5985437289384296"/><circle cx="980" cy="459" r="0.7179792681931043" opacity="0.49299085078249977"/><circle cx="917" cy="581" r="1.3409817965741966" opacity="0.9982989171361423"/><circle cx="187" cy="452" r="0.2531559302702526" opacity="0.6946309222524694"/><circle cx="570" cy="678" r="1.2050275737049594" opacity="0.4387302769773081"/><circle cx="222" cy="49" r="0.5939190852601415" opacity="0.6001343686810241"/><circle cx="437" cy="592" r="1.1547849350443666" opacity="0.2146509185624547"/><circle cx="70" cy="739" r="0.6420338526317637" opacity="0.899336172953757"/><circle cx="275" cy="691" r="0.9233209937318961" opacity="0.5742375421775887"/><circle cx="427" cy="651" r="0.33231470778676786" opacity="0.6765249706450428"/><circle cx="79" cy="24" r="0.9606828186847619" opacity="0.24192196372902616"/><circle cx="790" cy="489" r="0.6624815033527438" opacity="0.4396717662200715"/><circle cx="767" cy="247" r="0.31045761980177267" opacity="0.47228452626596784"/><circle cx="697" cy="54" r="1.285547805318947" opacity="0.2729829661705118"/><circle cx="237" cy="192" r="0.910178817834136" opacity="0.2051323752607752"/><circle cx="665" cy="764" r="0.40975465449557014" opacity="0.7979155556468931"/><circle cx="458" cy="107" r="1.3907140617751121" opacity="0.2995610062747135"/><circle cx="946" cy="390" r="1.275747069549945" opacity="0.2882661132846064"/><circle cx="914" cy="653" r="0.22242076929158106" opacity="0.2503652498151363"/><circle cx="675" cy="681" r="0.8007437759615621" opacity="0.9920627202685977"/><circle cx="446" cy="301" r="0.7753510879829546" opacity="0.5540338105482621"/><circle cx="333" cy="13" r="0.3731137648147209" opacity="0.26312438841479846"/><circle cx="826" cy="210" r="0.5309861578971232" opacity="0.6664622819406869"/><circle cx="574" cy="46" r="0.5505974054852103" opacity="0.5957857298741085"/><circle cx="103" cy="178" r="0.7391966632330581" opacity="0.8914805978908333"/><circle cx="339" cy="666" r="0.9169938125165173" opacity="0.6562931838419465"/><circle cx="794" cy="247" r="0.14835504628844975" opacity="0.5079534684582236"/><circle cx="297" cy="221" r="0.49360162171510513" opacity="0.9296063380323711"/><circle cx="369" cy="224" r="1.2799921274637946" opacity="0.7070760916351702"/><circle cx="335" cy="533" r="1.2791512406153682" opacity="0.22142586010326346"/><circle cx="418" cy="253" r="0.921189957729938" opacity="0.26957882606071754"/><circle cx="131" cy="95" r="0.7440337401988738" opacity="0.771321567817085"/><circle cx="565" cy="543" r="0.8629735114725404" opacity="0.3411181492598605"/><circle cx="659" cy="548" r="0.6688700394016567" opacity="0.5257514644371872"/><circle cx="445" cy="735" r="0.9139076483030532" opacity="0.8149080910195265"/><circle cx="546" cy="307" r="1.4130327918360392" opacity="0.9149418307346731"/><circle cx="506" cy="60" r="0.636047784853104" opacity="0.3023683877488445"/><circle cx="578" cy="760" r="1.228075099509687" opacity="0.2708585956549078"/><circle cx="422" cy="404" r="0.9319450448529503" opacity="0.9460196463291382"/><circle cx="332" cy="153" r="0.8808070354065829" opacity="0.9208248391215585"/><circle cx="759" cy="662" r="0.05372185831528786" opacity="0.2118057095077262"/><circle cx="584" cy="492" r="0.17825016210646027" opacity="0.7362974233742259"/><circle cx="984" cy="1" r="0.7317340745020826" opacity="0.967439607490852"/><circle cx="885" cy="687" r="0.801871363516266" opacity="0.2694453700757029"/><circle cx="530" cy="226" r="1.419977052251118" opacity="0.6871149190226065"/><circle cx="367" cy="582" r="1.1151151933878931" opacity="0.8299895010366416"/><circle cx="466" cy="487" r="0.09029153268005585" opacity="0.23662230013204744"/><circle cx="51" cy="556" r="0.5503116680748293" opacity="0.862726706483105"/><circle cx="463" cy="131" r="0.14905522862656262" opacity="0.29534837457650004"/><circle cx="394" cy="187" r="0.7301148402719285" opacity="0.9710810379257668"/><circle cx="394" cy="556" r="0.07818564844501663" opacity="0.4436351750689051"/><circle cx="404" cy="236" r="1.4824382969373988" opacity="0.5269783836073954"/><circle cx="53" cy="150" r="0.41540166297809245" opacity="0.7817893799270548"/>
        </g>
    </svg>