<svg width="1024" height="768" xmlns="http://www.w3.org/2000/svg">
        <g fill="#FFFFFF">
            <circle cx="748" cy="210" r="2.760694291796862" opacity="0.45461626207187883"/><circle cx="953" cy="295" r="2.285683193006482" opacity="0.6286357632062395"/><circle cx="872" cy="762" r="1.911109999295947" opacity="0.6801178208725753"/><circle cx="7" cy="516" r="2.954141698592334" opacity="0.6163121490908144"/><circle cx="327" cy="659" r="1.9666657314639702" opacity="0.4297432428546835"/><circle cx="640" cy="646" r="1.047122584171464" opacity="0.67804627339876"/><circle cx="770" cy="164" r="1.5979229758753206" opacity="0.8613236960856996"/><circle cx="921" cy="532" r="2.1066598541991866" opacity="0.6975398965995632"/><circle cx="993" cy="291" r="2.0953374107356084" opacity="0.6530336995001003"/><circle cx="32" cy="246" r="2.3186879035687475" opacity="0.542057998784685"/><circle cx="309" cy="351" r="1.3567700589839213" opacity="0.9131882316233377"/><circle cx="498" cy="339" r="1.9539288205355176" opacity="0.4157462873133405"/><circle cx="821" cy="135" r="2.2790668642508374" opacity="0.4703164742794528"/><circle cx="879" cy="402" r="2.307507748696356" opacity="0.7253447059153837"/><circle cx="149" cy="763" r="2.9571411923301603" opacity="0.9402612603606061"/><circle cx="987" cy="638" r="1.2259479151357358" opacity="0.9544796331105185"/><circle cx="662" cy="485" r="2.753432009530722" opacity="0.7449618212531361"/><circle cx="829" cy="480" r="1.8091278158045592" opacity="0.9019389440288793"/><circle cx="865" cy="467" r="1.5115776088373711" opacity="0.5896258502475606"/><circle cx="929" cy="232" r="2.9687920447903213" opacity="0.773735369216707"/><circle cx="579" cy="175" r="1.646633141291138" opacity="0.9936268984431642"/><circle cx="352" cy="645" r="2.6777630689248326" opacity="0.842108135681246"/><circle cx="842" cy="746" r="1.245528747488708" opacity="0.41346754193092444"/><circle cx="759" cy="690" r="1.8947964099355152" opacity="0.42594401530813114"/><circle cx="926" cy="366" r="1.1735705245265828" opacity="0.6165459053062456"/><circle cx="932" cy="9" r="1.9164172703523548" opacity="0.547552272083973"/><circle cx="362" cy="738" r="2.735412704295435" opacity="0.990121233081457"/><circle cx="730" cy="394" r="1.7043417541882877" opacity="0.5797871531898047"/><circle cx="424" cy="208" r="1.3300390293130357" opacity="0.43175444978723887"/><circle cx="1017" cy="384" r="1.610023066451761" opacity="0.7525215395399174"/><circle cx="367" cy="675" r="2.528371923885187" opacity="0.7097730863805278"/><circle cx="586" cy="227" r="1.320165620778543" opacity="0.9235616733577146"/><circle cx="972" cy="551" r="2.670120374761956" opacity="0.5280623434672053"/><circle cx="710" cy="241" r="1.531295691657772" opacity="0.9457954158416385"/><circle cx="487" cy="203" r="2.6128089317901817" opacity="0.6272662825393693"/><circle cx="502" cy="577" r="2.450582031825727" opacity="0.833742362330542"/><circle cx="475" cy="195" r="2.881200975771144" opacity="0.595159808541244"/><circle cx="82" cy="635" r="2.1848314558714215" opacity="0.4246620397762679"/><circle cx="1018" cy="86" r="2.007149072921051" opacity="0.8158489115904304"/><circle cx="395" cy="417" r="1.638570003333705" opacity="0.5776657033339754"/><circle cx="81" cy="764" r="2.5875735596683174" opacity="0.6396017547587959"/><circle cx="121" cy="121" r="1.2386184114400143" opacity="0.7774361317221412"/><circle cx="354" cy="77" r="2.914683748411759" opacity="0.555620957519075"/><circle cx="673" cy="319" r="2.097666575076044" opacity="0.6543458372230658"/><circle cx="10" cy="436" r="1.6832482262055133" opacity="0.8248420560540901"/><circle cx="138" cy="368" r="2.006336175593472" opacity="0.9372129288540723"/><circle cx="324" cy="482" r="2.694666423961974" opacity="0.6494139722700498"/><circle cx="505" cy="418" r="1.3122064646258838" opacity="0.7561684774346049"/><circle cx="526" cy="89" r="1.3977700888285085" opacity="0.6590145771417681"/><circle cx="909" cy="7" r="2.9652295359883682" opacity="0.9793317597719975"/><circle cx="631" cy="20" r="2.9995118126954683" opacity="0.45793599237212596"/><circle cx="201" cy="546" r="1.9471180415457265" opacity="0.9055533478107495"/><circle cx="200" cy="648" r="1.3807494294522646" opacity="0.939285020223174"/><circle cx="16" cy="265" r="2.248538676179934" opacity="0.8796517882134145"/><circle cx="34" cy="35" r="1.7403920571110234" opacity="0.8495699822857645"/><circle cx="241" cy="414" r="2.2252583900952185" opacity="0.9329670161793342"/><circle cx="53" cy="562" r="2.34871199195379" opacity="0.853963220505394"/><circle cx="713" cy="95" r="1.356719374792343" opacity="0.8380971813153193"/><circle cx="424" cy="158" r="1.425561048955581" opacity="0.49987116987605645"/><circle cx="97" cy="373" r="2.687637266634617" opacity="0.8474147870326176"/><circle cx="221" cy="732" r="2.2722431139338974" opacity="0.5840419598937272"/><circle cx="921" cy="443" r="1.9924268824909555" opacity="0.5481943959861134"/><circle cx="43" cy="738" r="2.845968500291369" opacity="0.6719085763504316"/><circle cx="477" cy="731" r="1.2583934419502194" opacity="0.43508364150697676"/><circle cx="649" cy="220" r="2.4958222697839854" opacity="0.6563642220495585"/><circle cx="940" cy="734" r="2.995099753766433" opacity="0.7197112690111074"/><circle cx="477" cy="725" r="2.7455628756431145" opacity="0.8080742480400351"/><circle cx="109" cy="43" r="1.482193507503084" opacity="0.6295202963832451"/><circle cx="512" cy="389" r="1.566374847235255" opacity="0.8282189247329899"/><circle cx="736" cy="328" r="2.7730610888997456" opacity="0.6926715577072629"/><circle cx="317" cy="584" r="1.8840830296880062" opacity="0.8088343227183341"/><circle cx="146" cy="59" r="2.9797405697432966" opacity="0.9083216103381528"/><circle cx="408" cy="719" r="1.9368746263594483" opacity="0.516864323389243"/><circle cx="356" cy="261" r="1.5700009529180332" opacity="0.7669328818410069"/><circle cx="505" cy="119" r="1.6772773406946726" opacity="0.96246785784241"/><circle cx="455" cy="730" r="1.690080845759836" opacity="0.719520769541558"/><circle cx="562" cy="606" r="2.345071057332711" opacity="0.936722005278715"/><circle cx="785" cy="178" r="1.1915874254932168" opacity="0.5037984176451292"/><circle cx="111" cy="351" r="1.4609041999339811" opacity="0.8430527172949925"/><circle cx="819" cy="98" r="1.7737125299042469" opacity="0.5822818557142411"/><circle cx="852" cy="472" r="1.0625603800524326" opacity="0.4968540481187395"/><circle cx="378" cy="456" r="2.9733284063493675" opacity="0.7044039651367691"/><circle cx="144" cy="139" r="2.4137079104217136" opacity="0.4322495645633165"/><circle cx="495" cy="597" r="2.1685717489353187" opacity="0.7505194267295505"/><circle cx="618" cy="134" r="2.226200620643541" opacity="0.5046499690747559"/><circle cx="303" cy="21" r="1.3711877795493526" opacity="0.9877233377448273"/><circle cx="498" cy="430" r="1.6090506893730194" opacity="0.7894565625262302"/><circle cx="573" cy="72" r="2.980477194124487" opacity="0.5418542991460952"/><circle cx="497" cy="364" r="1.7765353681029525" opacity="0.9401727905334734"/><circle cx="797" cy="259" r="2.8347119055290775" opacity="0.7459209335548769"/><circle cx="505" cy="570" r="2.500989437353364" opacity="0.960690300490319"/><circle cx="717" cy="410" r="2.809606280291672" opacity="0.5771732910381124"/><circle cx="927" cy="234" r="1.9332186863836114" opacity="0.5003172691035315"/><circle cx="328" cy="580" r="1.2054146613672567" opacity="0.4302264101383044"/><circle cx="510" cy="261" r="1.6841205350472728" opacity="0.7415063309946892"/><circle cx="600" cy="233" r="1.0462908429077" opacity="0.6929747730159563"/><circle cx="360" cy="627" r="2.4814594301291844" opacity="0.89402311401443"/><circle cx="570" cy="20" r="1.7830314453043257" opacity="0.8752578728054001"/><circle cx="482" cy="466" r="1.300816243046905" opacity="0.7270242366080679"/><circle cx="805" cy="723" r="1.992922849396523" opacity="0.70003126061823"/>
        </g>
    </svg>