<svg width="1024" height="768" xmlns="http://www.w3.org/2000/svg">
        <g fill="#FFFFFF">
            <circle cx="819" cy="83" r="2.450071790756537" opacity="0.6239229296537979"/><circle cx="604" cy="739" r="3.523660262267403" opacity="0.7592217478429779"/><circle cx="964" cy="684" r="3.001967520498999" opacity="0.9093735911565723"/><circle cx="336" cy="619" r="2.645974520883138" opacity="0.7749581617183083"/><circle cx="25" cy="728" r="4.976375831214085" opacity="0.6244779587782668"/><circle cx="499" cy="410" r="4.33734781768237" opacity="0.7759825347420704"/><circle cx="413" cy="256" r="3.042486817084556" opacity="0.8277159027919756"/><circle cx="898" cy="254" r="2.4038750841524856" opacity="0.6833729393061974"/><circle cx="973" cy="643" r="2.512236496316006" opacity="0.9284320443594611"/><circle cx="121" cy="27" r="3.134581375191381" opacity="0.7730655683231008"/><circle cx="823" cy="717" r="3.94829601684438" opacity="0.7955294229987813"/><circle cx="998" cy="551" r="2.9911903517319103" opacity="0.828581306528875"/><circle cx="674" cy="661" r="4.65833613401342" opacity="0.829380401307932"/><circle cx="658" cy="477" r="3.8943357239529077" opacity="0.6735127959238955"/><circle cx="509" cy="523" r="3.342093219149465" opacity="0.8108174493349226"/><circle cx="467" cy="358" r="4.848345735224118" opacity="0.7406945166156029"/><circle cx="427" cy="465" r="3.9847335862069153" opacity="0.9415148215184249"/><circle cx="454" cy="728" r="3.0408404561464115" opacity="0.6988863269272059"/><circle cx="287" cy="127" r="4.0713040346147595" opacity="0.7370487118349159"/><circle cx="148" cy="704" r="2.0015334409566536" opacity="0.9547952670214324"/><circle cx="582" cy="475" r="2.663343626441411" opacity="0.9912651234160698"/><circle cx="913" cy="654" r="3.884573919600909" opacity="0.769522432716655"/><circle cx="46" cy="536" r="3.4853618550223584" opacity="0.6509706461297069"/><circle cx="812" cy="208" r="3.558749692101113" opacity="0.7789471481018901"/><circle cx="541" cy="741" r="4.860652631725044" opacity="0.9512952275130699"/><circle cx="366" cy="451" r="3.583209023304942" opacity="0.8973862974412128"/><circle cx="161" cy="176" r="2.405246086601273" opacity="0.8701832630765591"/><circle cx="42" cy="38" r="3.00413906323554" opacity="0.6876877488596667"/><circle cx="293" cy="740" r="3.5113097122464185" opacity="0.7359014572153797"/><circle cx="177" cy="149" r="4.684383739814328" opacity="0.9423248320485446"/><circle cx="614" cy="590" r="4.729184762013637" opacity="0.7367723218176839"/><circle cx="798" cy="689" r="2.161971874145066" opacity="0.6916583930188864"/><circle cx="917" cy="720" r="4.187751895998176" opacity="0.8053039926228444"/><circle cx="48" cy="610" r="4.4280396815253225" opacity="0.9450344489004954"/><circle cx="1000" cy="277" r="4.667488790921942" opacity="0.7285767997390793"/><circle cx="417" cy="466" r="3.1908191163427464" opacity="0.611771153174814"/><circle cx="988" cy="146" r="3.3396560105470994" opacity="0.8720236742040515"/><circle cx="828" cy="539" r="4.057675537242735" opacity="0.7593255270027464"/><circle cx="464" cy="310" r="2.771311160172258" opacity="0.7890654742089159"/><circle cx="779" cy="638" r="3.3046216275393245" opacity="0.6739647188919174"/><circle cx="910" cy="548" r="2.539672785497654" opacity="0.9968784047021775"/><circle cx="783" cy="46" r="3.1655516686536593" opacity="0.9882156171868883"/><circle cx="58" cy="372" r="2.424475790864289" opacity="0.6664324973947238"/><circle cx="576" cy="224" r="2.626639462517484" opacity="0.940134985374802"/><circle cx="379" cy="264" r="3.4581326767385008" opacity="0.7721886773552906"/><circle cx="47" cy="115" r="3.633907907829737" opacity="0.6559061315204758"/><circle cx="139" cy="753" r="3.9136872813169568" opacity="0.8312631511085968"/><circle cx="985" cy="412" r="4.883250427952821" opacity="0.612322305244816"/><circle cx="89" cy="165" r="4.462660175827625" opacity="0.6913661419242392"/><circle cx="147" cy="307" r="3.2086027190383533" opacity="0.6096778406965326"/>
        </g>
    </svg>